<?xml version="1.0" encoding="UTF-8" standalone="no"?>
<!-- Generator: Adobe Illustrator 26.0.3, SVG Export Plug-In . SVG Version: 6.00 Build 0)  -->

<svg
   version="1.0"
   id="katman_1"
   x="0px"
   y="0px"
   viewBox="0 0 600 450"
   style="enable-background:new 0 0 600 450;"
   xml:space="preserve"
   sodipodi:docname="favicon.svg"
   inkscape:version="1.4.2 (ebf0e940d0, 2025-05-08)"
   xmlns:inkscape="http://www.inkscape.org/namespaces/inkscape"
   xmlns:sodipodi="http://sodipodi.sourceforge.net/DTD/sodipodi-0.dtd"
   xmlns="http://www.w3.org/2000/svg"
   xmlns:svg="http://www.w3.org/2000/svg"><defs
   id="defs33" /><sodipodi:namedview
   id="namedview33"
   pagecolor="#ffffff"
   bordercolor="#000000"
   borderopacity="0.25"
   inkscape:showpageshadow="2"
   inkscape:pageopacity="0.0"
   inkscape:pagecheckerboard="0"
   inkscape:deskcolor="#d1d1d1"
   inkscape:zoom="1.8044444"
   inkscape:cx="299.81527"
   inkscape:cy="225"
   inkscape:window-width="1898"
   inkscape:window-height="1028"
   inkscape:window-x="0"
   inkscape:window-y="0"
   inkscape:window-maximized="0"
   inkscape:current-layer="katman_1" />
<style
   type="text/css"
   id="style1">
	.st0{fill:#F8AF60;}
	.st1{fill:#693C34;}
	.st2{fill:#FFFFFF;}
	.st3{fill:#F18D8C;}
</style>
<path
   class="st0"
   d="m 352.70301,121.47828 c 0,0 66.32633,-61.708078 95.67764,-48.395773 24.26884,21.077816 4.7013,158.222293 4.7013,158.222293 0,0 -92.88229,-65.45217 -100.37894,-109.82652"
   id="path1"
   style="stroke-width:1.32739" />
<path
   class="st1"
   d="m 453.08195,235.74223 c -0.76238,0 -1.52475,-0.27734 -2.28712,-0.69335 -0.25412,-0.13867 -23.63352,-16.77905 -47.77529,-38.55021 -32.78198,-29.81402 -51.0789,-54.77459 -54.38252,-74.18837 -0.25412,-1.52537 0.25413,-3.1894 1.39769,-4.29876 2.28711,-2.08005 55.52607,-51.307846 88.68924,-51.307846 4.19304,0 7.87784,0.69335 11.18145,2.218718 0.38118,0.13867 0.63531,0.416009 1.01649,0.693349 11.30852,9.845559 15.62862,39.520909 12.96032,90.690079 -1.90593,36.74751 -6.73428,71.2763 -6.86134,71.69231 -0.25413,1.52537 -1.14356,2.77339 -2.41418,3.46674 -0.38119,0.13867 -1.0165,0.27734 -1.52474,0.27734 M 357.4043,123.14232 c 4.06598,16.91772 21.60053,39.79825 50.95184,66.42286 16.77218,15.25368 33.29023,27.87263 41.54926,33.97411 1.52474,-11.92561 4.44717,-37.30219 5.84485,-63.78813 3.04948,-60.460052 -4.44717,-77.793783 -9.40259,-82.785897 -2.16005,-0.832019 -4.57423,-1.248029 -7.36959,-1.248029 -27.0642,0 -71.91706,38.688886 -81.57377,47.425086"
   id="path2"
   style="stroke-width:1.32739" />
<path
   class="st0"
   d="m 247.49571,121.47828 c 0,0 -66.32633,-61.708078 -95.67764,-48.395773 -24.26884,21.077816 -4.7013,158.222293 -4.7013,158.222293 0,0 92.88229,-65.45217 100.37894,-109.82652"
   id="path3"
   style="stroke-width:1.32739" />
<path
   class="st1"
   d="m 147.24384,235.74223 c -0.63531,0 -1.14356,-0.13867 -1.65181,-0.41601 -1.27062,-0.69335 -2.16005,-1.94137 -2.41418,-3.46674 0,-0.27734 -4.95541,-34.9448 -6.86134,-71.69231 -2.54124,-51.30784 1.6518,-80.98319 12.96032,-90.690079 0.25412,-0.277339 0.63531,-0.416009 1.01649,-0.693349 3.30361,-1.525368 6.98841,-2.218717 11.18146,-2.218717 33.16316,0 86.52918,49.227795 88.68923,51.307845 1.14356,1.10936 1.65181,2.63472 1.39769,4.29876 -3.30361,19.41378 -21.60053,44.37435 -54.38252,74.18837 -24.01471,21.77116 -47.52117,38.41154 -47.77529,38.55021 -0.63531,0.69335 -1.39768,0.83202 -2.16005,0.83202 m 6.73428,-158.776967 c -5.08248,4.853444 -12.45207,22.325845 -9.40258,82.785897 1.39768,26.48594 4.3201,51.86252 5.84485,63.78813 8.25902,-6.10148 24.77708,-18.8591 41.67631,-34.11278 29.35131,-26.62461 46.88586,-49.50514 50.95185,-66.28419 -9.78377,-8.7362 -54.50958,-47.425086 -81.44671,-47.425086 -2.92243,0 -5.46367,0.41601 -7.62372,1.248029"
   id="path4"
   style="stroke-width:1.32739" />
<path
   class="st2"
   d="m 372.77879,132.84921 c 0,0 52.60365,-42.016963 62.76861,-36.608839 8.51315,4.576109 2.16005,96.236869 -2.41418,110.381199 z"
   id="path5"
   style="stroke-width:1.32739" />
<path
   class="st2"
   d="m 227.41993,132.84921 c 0,0 -52.60365,-42.016963 -62.76861,-36.608839 -8.51315,4.576109 -2.16005,96.236869 2.41418,110.381199 z"
   id="path6"
   style="stroke-width:1.32739" />
<path
   class="st0"
   d="m 460.95979,351.80889 c 0,0 31.13017,-97.4849 -14.10388,-137.28314 C 401.74892,174.7275 406.8314,106.77928 299.71817,118.56622 192.60495,106.77928 197.68743,174.7275 152.58044,214.52575 107.47345,254.32399 138.47656,351.80889 138.47656,351.80889 Z"
   id="path7"
   style="stroke-width:1.32739" />
<path
   class="st1"
   d="M 460.95979,356.24633 H 138.60362 c -1.77886,0 -3.30361,-1.24803 -3.93892,-3.05074 -0.38118,-0.97069 -8.0049,-25.23791 -10.16495,-54.77459 -1.27062,-17.4724 -0.38119,-33.28076 2.79536,-46.73173 4.06598,-17.19507 11.6897,-30.92338 22.61703,-40.63027 12.83325,-11.37093 21.72759,-25.37658 30.24074,-38.82755 9.27552,-14.69901 18.80517,-29.81402 33.16317,-40.90761 16.39099,-12.61895 36.46678,-18.58176 63.27685,-18.58176 7.24253,0 14.99331,0.41601 23.12527,1.3867 8.13197,-0.83202 15.88275,-1.3867 23.12528,-1.3867 26.81007,0 46.88586,5.82414 63.27685,18.58176 14.48506,11.09359 24.01471,26.34727 33.16317,40.90761 8.51315,13.58964 17.40748,27.59529 30.24074,38.82755 11.05439,9.70689 18.67811,23.29654 22.61703,40.63027 3.17655,13.45097 4.06598,29.25933 2.79536,46.73173 -2.16005,29.53668 -9.78377,53.8039 -10.16496,54.77459 -0.50824,1.94138 -2.03299,3.05074 -3.81185,3.05074 M 141.52605,347.23279 H 457.9103 c 2.03299,-7.3495 7.24253,-27.17929 8.76727,-49.78248 1.77887,-25.65392 -0.50824,-60.18271 -22.48996,-79.45782 -13.84975,-12.20294 -22.99821,-26.76328 -31.89255,-40.76893 -18.80517,-29.81402 -34.94204,-55.60661 -89.57867,-55.60661 -6.98841,0 -14.61213,0.41601 -22.74409,1.3867 -0.25413,0 -0.50825,0 -0.88944,0 -8.0049,-0.83202 -15.62861,-1.3867 -22.74408,-1.3867 -54.63664,0 -70.90057,25.79259 -89.57868,55.60661 -8.89433,14.14432 -18.04279,28.70466 -31.89255,40.76893 -21.98171,19.27511 -24.26883,53.94257 -22.48996,79.73516 2.03299,22.46452 7.11547,42.29431 9.14846,49.50514"
   id="path8"
   style="stroke-width:1.32739" />
<path
   class="st2"
   d="m 459.81623,351.80889 c 0,0 12.07088,-99.98095 -126.80783,-118.56271 l -33.67141,-4.71478 -33.67142,4.71478 C 126.78686,251.82794 138.85775,351.80889 138.85775,351.80889"
   id="path9"
   style="stroke-width:1.32739" />
<path
   class="st2"
   d="m 415.09042,350.69953 c 0,0 -23.50646,-69.8896 11.56264,-65.59083 0,0 -6.09897,-21.77117 10.16496,-25.79259 16.26393,-4.1601 21.3464,8.7362 21.3464,8.7362 0,0 4.32011,-18.16575 19.56754,-14.69901 15.12038,3.46675 11.81676,19.69112 11.81676,19.69112 0,0 35.57735,-30.09135 29.60544,77.51644"
   id="path10"
   style="stroke-width:1.32739" />
<path
   class="st1"
   d="m 415.09042,355.27564 c -1.6518,0 -3.30361,-1.10936 -3.93892,-2.91207 -0.12706,-0.41601 -3.81186,-11.5096 -6.22603,-24.8219 -3.30361,-18.58176 -2.16006,-32.03273 3.43067,-39.65958 2.28711,-3.1894 6.3531,-6.65615 13.08738,-7.3495 -0.50825,-4.5761 -0.38119,-11.09358 2.41418,-16.50171 2.41417,-4.71477 6.48016,-7.76551 11.81676,-9.01354 9.91083,-2.49606 17.0263,0.55468 21.34641,4.57611 0.50824,-0.97069 1.14355,-1.94138 1.90593,-2.91207 4.82835,-6.65615 11.81676,-9.42955 19.44047,-7.62684 5.59073,1.24803 9.78377,4.16009 12.45207,8.59753 1.52475,2.63473 2.41418,5.54679 2.6683,8.18152 3.81186,-1.3867 8.64022,-1.94138 13.59563,0.97069 6.09898,3.60541 10.67321,11.5096 13.34151,23.57387 3.17655,14.14433 4.06598,34.52879 2.54124,60.59872 -0.12707,2.49606 -2.03299,4.43744 -4.32011,4.1601 -2.28711,-0.13867 -4.06598,-2.21872 -3.81186,-4.71478 1.39768,-25.09924 0.63531,-44.51302 -2.41417,-57.82532 -2.033,-9.42955 -5.20954,-15.53102 -9.14847,-17.88841 -5.3366,-3.05074 -11.43557,1.80271 -11.56263,1.94138 -1.39768,1.10936 -3.30361,1.24803 -4.70129,0.27734 -1.52475,-0.97069 -2.16006,-2.91207 -1.77887,-4.85345 0,0 1.01649,-5.54679 -1.39768,-9.56822 -1.39768,-2.35738 -3.81186,-3.88275 -7.11547,-4.71477 -4.57423,-1.10936 -8.25903,0.41601 -11.18145,4.29876 -2.41418,3.32808 -3.43068,7.21084 -3.43068,7.21084 -0.50824,1.94137 -1.90593,3.32807 -3.68479,3.32807 -1.77887,0.13867 -3.43068,-0.97069 -4.06598,-2.7734 -0.50825,-1.10935 -4.44717,-9.1522 -16.64512,-6.10147 -3.04949,0.83202 -5.20954,2.35739 -6.48016,4.85345 -3.17655,5.9628 -0.76237,15.25368 -0.63531,15.39235 0.38119,1.3867 0.12706,3.05074 -0.76237,4.16009 -0.88943,1.10936 -2.28712,1.80271 -3.6848,1.66404 -5.20954,-0.69335 -8.89433,0.55468 -11.18145,3.74409 -3.93892,5.40812 -4.57423,16.91772 -1.77887,32.44874 2.16006,12.48029 5.71779,23.29654 5.84485,23.29654 0.76238,2.35738 -0.25412,4.99211 -2.41417,5.82413 -0.50825,0 -1.0165,0.13867 -1.52475,0.13867"
   id="path11"
   style="stroke-width:1.32739" />
<path
   class="st3"
   d="m 433.13322,303.9678 c 0,4.85344 -3.6848,8.87487 -8.13196,8.87487 -4.44717,0 -8.13197,-4.02143 -8.13197,-8.87487 0,-4.85345 3.6848,-8.87487 8.13197,-8.87487 4.44716,0 8.13196,4.02142 8.13196,8.87487"
   id="path12"
   style="stroke-width:1.32739" />
<path
   class="st3"
   d="m 451.30308,276.64984 c 0,4.85344 -3.6848,8.87487 -8.13197,8.87487 -4.44716,0 -8.13196,-4.02143 -8.13196,-8.87487 0,-4.85345 3.6848,-8.87487 8.13196,-8.87487 4.57423,0 8.13197,4.02142 8.13197,8.87487"
   id="path13"
   style="stroke-width:1.32739" />
<path
   class="st3"
   d="m 482.05207,271.38038 c 0,4.85345 -3.6848,8.87487 -8.13196,8.87487 -4.44717,0 -8.13197,-4.02142 -8.13197,-8.87487 0,-4.85344 3.6848,-8.87487 8.13197,-8.87487 4.57423,0 8.13196,4.02143 8.13196,8.87487"
   id="path14"
   style="stroke-width:1.32739" />
<path
   class="st3"
   d="m 504.28791,289.40746 c 0,4.85345 -3.6848,8.87487 -8.13196,8.87487 -4.44717,0 -8.13197,-4.02142 -8.13197,-8.87487 0,-4.85344 3.6848,-8.87487 8.13197,-8.87487 4.44716,0 8.13196,4.02143 8.13196,8.87487"
   id="path15"
   style="stroke-width:1.32739" />
<path
   class="st3"
   d="m 441.90049,319.77616 c -1.39768,-11.5096 7.24254,-27.04062 20.07579,-28.84333 12.83326,-1.94138 24.90414,10.53891 26.30183,22.18718 1.39768,11.50959 -8.38609,17.33373 -21.21935,19.2751 -12.83326,1.66404 -23.76058,-1.10935 -25.15827,-12.61895"
   id="path16"
   style="stroke-width:1.32739" />
<path
   class="st1"
   d="m 377.48009,270.8257 c 0,0 0.50824,64.75882 -77.38073,64.75882 v 0 c -77.88897,0 -77.38073,-64.75882 -77.38073,-64.75882 0,0 70.01114,-32.1714 154.76146,0"
   id="path17"
   style="stroke-width:1.32739" />
<path
   class="st2"
   d="m 377.48009,243.78508 c 0,0 -17.91574,-11.9256 -24.26884,-27.73396 -6.35309,-15.80837 -14.48506,-41.60096 -53.49308,-41.60096 h 0.76238 c -39.13508,0 -47.13999,25.93126 -53.49308,41.60096 -6.3531,15.80836 -24.26884,27.73396 -24.26884,27.73396"
   id="path18"
   style="stroke-width:1.32739" />
<path
   class="st1"
   d="m 377.48009,243.78508 c -1.0165,-0.55467 -2.03299,-1.10935 -2.92243,-1.66403 -1.01649,-0.55468 -1.90593,-1.24803 -2.92242,-1.94138 -1.90593,-1.24803 -3.6848,-2.7734 -5.59073,-4.1601 -1.77887,-1.52537 -3.55773,-3.05073 -5.20954,-4.71477 -1.6518,-1.66404 -3.30361,-3.46675 -4.70129,-5.40813 -1.52474,-1.94137 -2.79536,-4.02142 -4.06598,-6.24014 -0.12706,-0.27734 -0.25413,-0.55468 -0.50825,-0.83202 l -0.38119,-0.83202 c -0.25412,-0.55468 -0.50824,-1.10936 -0.76237,-1.66403 l -1.52474,-3.32808 c -1.0165,-2.21872 -1.90593,-4.29877 -2.92243,-6.37881 -1.01649,-2.08005 -2.16005,-4.02143 -3.30361,-5.96281 -1.14355,-1.94137 -2.41417,-3.74408 -3.81186,-5.40812 -1.39768,-1.66404 -2.79536,-3.18941 -4.3201,-4.71478 -1.52475,-1.38669 -3.17655,-2.63472 -4.95542,-3.88275 l -1.27062,-0.83202 -1.39768,-0.83202 c -0.38118,-0.27734 -0.88943,-0.55468 -1.39768,-0.69335 -0.50825,-0.27734 -0.88943,-0.41601 -1.39768,-0.69335 -0.88944,-0.41601 -1.90593,-0.83202 -2.92243,-1.10936 -0.50824,-0.13867 -1.01649,-0.41601 -1.39768,-0.55468 l -1.52474,-0.41601 -0.76237,-0.27733 c -0.25413,-0.13867 -0.50825,-0.13867 -0.76237,-0.13867 l -1.52475,-0.41601 c -1.01649,-0.27734 -2.03299,-0.41601 -3.04948,-0.69335 l -3.04949,-0.41601 c -1.0165,-0.13867 -2.03299,-0.27734 -3.17655,-0.27734 -1.0165,0 -2.16005,-0.13867 -3.17655,-0.13867 h -3.17655 v -9.01354 h 0.76237 c 2.28712,0 4.19305,1.94138 4.19305,4.43743 0,2.49606 -1.77887,4.43744 -4.06598,4.57611 h -0.12707 -3.17654 c -1.0165,0 -2.16006,0.13867 -3.17655,0.13867 -1.0165,0.13867 -2.03299,0.27734 -3.17655,0.27734 -1.0165,0.13867 -2.03299,0.27734 -3.04949,0.41601 -1.01649,0.27734 -2.03299,0.41601 -3.04949,0.69335 l -1.52474,0.41601 c -0.25412,0 -0.50825,0.13867 -0.76237,0.13867 l -0.76237,0.27733 -1.52475,0.41601 c -0.50824,0.13867 -1.01649,0.41601 -1.39768,0.55468 -1.01649,0.27734 -1.90593,0.83202 -2.92242,1.10936 -0.50825,0.13867 -0.88944,0.41601 -1.39768,0.69335 -0.50825,0.27734 -0.88944,0.41601 -1.39768,0.69335 l -1.39769,0.83202 -1.27062,0.83202 c -1.6518,1.10936 -3.43067,2.35739 -4.95541,3.88275 -1.52474,1.3867 -3.04949,3.05074 -4.32011,4.71478 -1.39768,1.66404 -2.6683,3.46675 -3.81186,5.40812 -1.14355,1.94138 -2.28711,3.88276 -3.30361,5.96281 -1.01649,2.08004 -2.03299,4.16009 -2.92242,6.37881 l -1.39768,3.32808 -0.38119,0.83201 -0.12706,0.13867 v 0 0.13867 0 0.13867 l -0.25412,0.41601 -0.38119,0.83202 c -0.12706,0.27734 -0.25412,0.55468 -0.50825,0.83202 -0.12706,0.27734 -0.25412,0.55468 -0.50825,0.83202 l -0.50824,0.83202 c -0.25413,0.55468 -0.63531,1.10936 -1.0165,1.52537 -0.63531,1.10936 -1.39768,2.08005 -2.16005,3.05073 -1.52475,1.94138 -3.04949,3.74409 -4.70129,5.40813 -1.65181,1.66404 -3.43068,3.32807 -5.20954,4.71477 -1.77887,1.52537 -3.6848,2.91207 -5.59073,4.1601 -0.88943,0.69335 -1.90593,1.24803 -2.92243,1.94138 -1.01649,0.55468 -1.90592,1.24802 -2.92242,1.66403 1.77887,-1.52536 3.43067,-3.05073 5.08248,-4.71477 1.6518,-1.66404 3.17655,-3.32808 4.82835,-4.99211 1.52475,-1.66404 3.04949,-3.46675 4.32011,-5.26946 1.39768,-1.80271 2.6683,-3.74408 3.81186,-5.68546 0.63531,-0.97069 1.14355,-1.94138 1.6518,-2.91207 0.25413,-0.55468 0.50825,-0.97069 0.76237,-1.52537 l 0.38119,-0.83202 c 0.12706,-0.27734 0.25412,-0.55468 0.25412,-0.69335 0.12707,-0.27734 0.25413,-0.41601 0.25413,-0.69334 l 0.25412,-0.83202 0.12706,-0.41601 v -0.13867 0 c 0,0.13867 0,0 0,0 v 0 l 0.12707,-0.27734 0.25412,-0.83202 1.14356,-3.46675 c 0.76237,-2.35739 1.6518,-4.5761 2.54124,-6.93349 0.88943,-2.21872 2.03299,-4.5761 3.17654,-6.79482 1.14356,-2.21872 2.54124,-4.43744 3.93892,-6.37882 1.52475,-2.08004 3.04949,-4.02142 4.82836,-5.82413 1.77887,-1.80271 3.6848,-3.46674 5.71779,-4.85344 l 1.52474,-1.10936 1.52474,-0.97069 c 0.50825,-0.27734 1.0165,-0.69335 1.65181,-0.97069 0.50825,-0.27734 1.01649,-0.55468 1.6518,-0.83202 1.14356,-0.55468 2.16006,-1.10936 3.30361,-1.52537 0.50825,-0.27734 1.14356,-0.41601 1.65181,-0.69335 l 1.6518,-0.55468 0.88944,-0.27734 c 0.25412,-0.13867 0.63531,-0.13867 0.88943,-0.27734 l 1.77887,-0.416 c 1.14356,-0.27734 2.28711,-0.55468 3.43067,-0.83202 1.14356,-0.13867 2.28712,-0.41601 3.43067,-0.55468 1.14356,-0.13867 2.28712,-0.27734 3.55774,-0.41601 1.14356,-0.13867 2.28711,-0.13867 3.43067,-0.27734 l 3.43067,-0.13867 v 9.01354 h -0.76237 -0.12706 c -2.28711,0 -4.06598,-2.08005 -4.06598,-4.57611 0,-2.49605 1.90593,-4.43743 4.19304,-4.43743 0,0 0,0 0.12706,0 l 3.43068,0.13867 c 1.14355,0 2.28711,0.13867 3.43067,0.27734 1.14356,0.13867 2.28711,0.27734 3.55773,0.41601 1.14356,0.13867 2.28712,0.41601 3.43068,0.55468 1.14355,0.27734 2.28711,0.55468 3.43067,0.83202 l 1.77887,0.416 c 0.25412,0.13867 0.63531,0.13867 0.88943,0.27734 l 0.88943,0.27734 1.65181,0.55468 c 0.50825,0.27734 1.14356,0.41601 1.6518,0.69335 1.14356,0.41601 2.28712,0.97069 3.30362,1.52537 0.50824,0.27734 1.14355,0.55468 1.6518,0.83202 0.50825,0.27734 1.14356,0.55468 1.65181,0.97069 l 1.52474,0.97069 1.52474,1.10936 c 0.50825,0.27734 1.0165,0.69335 1.52475,1.10936 0.50824,0.41601 1.01649,0.83201 1.39768,1.24802 l 1.39768,1.24803 1.39768,1.3867 c 1.77887,1.80271 3.43067,3.74409 4.82835,5.82413 1.52475,2.08005 2.79537,4.1601 3.93892,6.37882 1.14356,2.21871 2.16006,4.43743 3.17655,6.79482 0.88944,2.21872 1.77887,4.5761 2.54124,6.93349 0.76237,2.21872 1.52475,4.57611 2.41418,6.65615 0.88943,2.08005 1.90593,4.02143 3.04949,5.96281 1.14355,1.94138 2.41417,3.88275 3.81185,5.68546 1.39769,1.80271 2.79537,3.60542 4.44717,5.26946 1.52475,1.66403 3.17655,3.32807 4.82836,4.99211 2.41417,1.52537 4.19304,3.05074 5.84485,4.5761"
   id="path19"
   style="stroke-width:1.32739" />
<path
   class="st1"
   d="m 334.53315,201.49078 c 0,13.17364 -15.3745,38.41155 -34.30673,38.41155 -18.93223,0 -34.30672,-25.23791 -34.30672,-38.41155 0,-13.17363 15.37449,-20.38446 34.30672,-20.38446 18.93223,0 34.30673,7.21083 34.30673,20.38446"
   id="path20"
   style="stroke-width:1.32739" />
<path
   class="st2"
   d="m 383.70612,255.98803 c 0,0 -2.92242,28.70466 -31.3843,22.88052 -29.60543,-6.10147 -21.34641,-23.29653 -52.60365,-23.4352 h 0.38119 c -31.25724,0.13867 -22.99821,17.33373 -52.60365,23.4352 -28.33481,5.82414 -31.3843,-22.88052 -31.3843,-22.88052"
   id="path21"
   style="stroke-width:1.32739" />
<path
   class="st1"
   d="m 383.70612,255.98803 c 0,2.35739 -0.50825,4.57611 -1.01649,6.93349 -0.63531,2.21872 -1.39769,4.43744 -2.54124,6.51749 -1.14356,2.08004 -2.41418,4.02142 -4.06598,5.82413 -1.65181,1.66404 -3.55774,3.18941 -5.59073,4.29876 -2.03299,1.10936 -4.32011,1.80271 -6.48016,2.35739 l -1.65181,0.27734 c -0.50824,0.13867 -1.14355,0.13867 -1.6518,0.13867 l -0.88943,0.13867 h -0.88944 c -0.50825,0 -1.14356,0 -1.6518,0 l -1.65181,-0.13867 H 354.736 l -0.88944,-0.13867 -1.6518,-0.27734 h -0.25412 v 0 h -0.12707 -0.12706 -0.38118 l -0.76238,-0.13867 c -0.50824,-0.13867 -1.01649,-0.13867 -1.52474,-0.27734 l -1.65181,-0.41601 -0.88943,-0.13867 -0.76237,-0.27734 -1.65181,-0.41601 c -2.16005,-0.69335 -4.3201,-1.52537 -6.35309,-2.49605 -2.16006,-0.97069 -4.06599,-2.21872 -6.09898,-3.60542 -1.90593,-1.3867 -3.68479,-2.91207 -5.3366,-4.29877 -1.6518,-1.52536 -3.17655,-2.91206 -4.70129,-4.02142 -1.52474,-1.24803 -3.04949,-2.21872 -4.70129,-2.91207 -1.65181,-0.83202 -3.43068,-1.3867 -5.20954,-1.80271 -1.90593,-0.416 -3.81186,-0.69334 -5.71779,-0.83201 -1.0165,-0.13867 -2.03299,-0.13867 -2.92242,-0.13867 -1.0165,0 -2.033,0 -3.04949,0 v 0 c -2.28712,0 -4.06598,-2.08005 -4.06598,-4.57611 0,-2.49606 1.90593,-4.43743 4.06598,-4.43743 h 0.38118 c 2.28712,0 4.19305,1.94137 4.19305,4.43743 0,2.49606 -1.77887,4.43744 -4.06598,4.57611 h -0.12707 c -1.01649,0 -2.03299,0 -3.04948,0 -1.0165,0 -2.03299,0.13867 -2.92243,0.13867 l -1.39768,0.13867 -1.39768,0.27734 c -0.50825,0 -0.88943,0.13867 -1.39768,0.27733 -0.50825,0.13867 -0.88944,0.13867 -1.39768,0.27734 -1.90593,0.41601 -3.55774,0.97069 -5.20954,1.80271 -1.65181,0.83202 -3.17655,1.80271 -4.7013,2.91207 -1.52474,1.24803 -3.04948,2.63473 -4.70129,4.02142 -1.6518,1.52537 -3.43067,3.05074 -5.3366,4.29877 -1.90593,1.3867 -3.93892,2.63473 -6.09897,3.60542 -2.16006,0.97068 -4.19305,1.8027 -6.3531,2.49605 -2.16005,0.69335 -4.32011,1.10936 -6.48016,1.52537 l -0.76237,0.13867 -0.38119,0.13867 h -0.12706 -0.12706 v 0 h -0.25412 l -1.52475,0.13867 -0.76237,0.13867 h -0.88943 l -1.77887,0.13867 c -0.63531,0 -1.14356,0 -1.65181,0 h -0.88943 l -0.88943,-0.13867 c -0.50825,0 -1.14356,-0.13867 -1.65181,-0.13867 l -1.6518,-0.27734 c -2.28712,-0.55468 -4.44717,-1.24803 -6.60722,-2.35739 -2.033,-1.10935 -3.93893,-2.63472 -5.59073,-4.29876 -1.65181,-1.66404 -3.04949,-3.74409 -4.06598,-5.82413 -1.14356,-2.08005 -1.90593,-4.29877 -2.54124,-6.51749 -0.25413,-1.10936 -0.50825,-2.21871 -0.76237,-3.46674 -0.12707,-1.10936 -0.25413,-2.35739 -0.38119,-3.46675 0.50825,2.21872 1.27062,4.43744 2.16005,6.37881 0.88944,2.08005 2.03299,3.88276 3.30361,5.68547 1.27062,1.66403 2.66831,3.1894 4.32011,4.43743 1.52474,1.24803 3.30361,2.21872 5.08248,2.91207 1.77887,0.69335 3.68479,1.10936 5.59072,1.24803 1.90593,0.13867 3.81186,0 5.84485,-0.13867 l 1.39769,-0.27734 0.6353,-0.13867 0.76238,-0.13867 1.52474,-0.27734 h 0.25412 v 0 c 0,0 -0.12706,0 0,0 v 0 h 0.12707 l 0.38118,-0.13867 0.76237,-0.13867 c 2.03299,-0.55468 3.81186,-1.24803 5.71779,-1.94138 1.90593,-0.69335 3.6848,-1.52537 5.3366,-2.49606 1.65181,-0.97069 3.30361,-2.08004 4.82836,-3.32807 1.52474,-1.24803 3.04948,-2.63473 4.57423,-4.1601 1.52474,-1.52537 3.17655,-3.05073 5.08247,-4.71477 1.77887,-1.52537 3.93893,-2.91207 6.09898,-4.02143 2.16005,-1.10936 4.44717,-1.94138 6.73428,-2.49606 0.50825,-0.13867 1.14356,-0.27734 1.65181,-0.416 0.50824,-0.13867 1.14355,-0.27734 1.6518,-0.27734 l 1.65181,-0.27734 1.6518,-0.13867 c 1.14356,-0.13867 2.28712,-0.13867 3.30361,-0.27734 1.14356,0 2.16006,0 3.30361,-0.13867 v 9.01354 h -0.38118 v -9.01354 c 1.14356,0 2.16005,0 3.30361,0.13867 1.14356,0.13867 2.16005,0.13867 3.30361,0.27734 l 1.6518,0.13867 1.65181,0.27734 c 0.50825,0.13867 1.14356,0.13867 1.65181,0.27734 0.50824,0.13866 1.14355,0.27733 1.6518,0.416 2.28712,0.55468 4.57423,1.3867 6.73428,2.49606 0.50825,0.27734 1.14356,0.55468 1.65181,0.83202 0.50825,0.27734 1.0165,0.69335 1.52474,0.97069 0.50825,0.27734 1.0165,0.69335 1.52475,1.10936 0.50824,0.41601 1.01649,0.69335 1.39768,1.10936 1.90593,1.52537 3.43067,3.1894 5.08248,4.71477 1.52474,1.52537 3.04948,2.91207 4.57423,4.1601 1.52474,1.24803 3.17654,2.35738 4.82835,3.32807 1.65181,0.97069 3.55773,1.80271 5.3366,2.49606 l 1.39768,0.55468 0.76237,0.27734 0.76238,0.27734 1.39768,0.41601 c 0.50825,0.13867 1.01649,0.27734 1.52474,0.41601 l 0.76237,0.27734 0.38119,0.13867 h 0.12706 v 0 c 0,0 0,0 0,0 v 0 h 0.12706 l 1.39768,0.27734 0.76238,0.13867 0.76237,0.13867 1.39768,0.27734 c 1.90593,0.27734 3.93892,0.27734 5.84485,0.13867 1.90593,-0.13867 3.81186,-0.55468 5.59072,-1.24803 1.77887,-0.69335 3.55774,-1.66404 5.08248,-2.91207 1.52475,-1.24803 3.04949,-2.7734 4.32011,-4.43743 1.27062,-1.66404 2.28711,-3.60542 3.30361,-5.68547 0.88943,-2.21871 1.6518,-4.43743 2.16005,-6.65615"
   id="path22"
   style="stroke-width:1.32739" />
<path
   class="st2"
   d="m 265.79263,158.91914 c -1.77886,5.68546 -8.64021,8.32019 -15.12037,5.9628 -6.60722,-2.49605 -10.54614,-9.01354 -8.76727,-14.83767 1.77887,-5.68546 8.64021,-8.32019 15.12037,-5.9628 6.60722,2.49605 10.54614,9.01354 8.76727,14.83767"
   id="path23"
   style="stroke-width:1.32739" />
<path
   class="st2"
   d="m 334.40609,158.91914 c 1.77886,5.68546 8.64021,8.32019 15.12037,5.9628 6.60722,-2.49605 10.54614,-9.01354 8.76727,-14.83767 -1.77886,-5.68546 -8.64021,-8.32019 -15.12037,-5.9628 -6.60722,2.49605 -10.54614,9.01354 -8.76727,14.83767"
   id="path24"
   style="stroke-width:1.32739" />
<path
   class="st1"
   d="M 595.26427,356.24633 H 4.9344552 c -2.287115,0 -4.06598229,-2.08005 -4.06598229,-4.43744 0,-2.49605 1.90592919,-4.43743 4.06598229,-4.43743 H 595.26427 c 2.28711,0 4.06598,2.08005 4.06598,4.43743 0.12706,2.49606 -1.77887,4.43744 -4.06598,4.43744"
   id="path25"
   style="stroke-width:1.32739" />
<path
   class="st1"
   d="m 295.65219,264.03088 4.06598,-35.36081 4.06599,35.36081 c 0.25412,2.49606 -1.27062,4.71478 -3.55774,5.13079 -2.28711,0.27734 -4.3201,-1.3867 -4.70129,-3.88276 0.12706,-0.55468 0.12706,-0.97069 0.12706,-1.24803"
   id="path26"
   style="stroke-width:1.32739" />
<path
   class="st2"
   d="m 159.31472,357.07835 c 0,0 8.89434,17.05639 22.99821,3.46674 14.23094,-13.45097 8.00491,-71.55364 -46.88585,-69.61226 -54.890766,1.94138 -57.050819,68.22556 -43.836376,81.67654 17.153366,17.4724 27.318316,-3.74409 28.588936,-10.95492 0,0 -4.06598,21.90984 20.83816,17.74974 24.90414,-4.16009 18.29692,-22.32584 18.29692,-22.32584"
   id="path27"
   style="stroke-width:1.32739" />
<path
   class="st1"
   d="m 135.17295,384.53498 v 0 c -6.86134,0 -12.07088,-2.21872 -15.50156,-6.79483 -0.50824,-0.69335 -0.88943,-1.3867 -1.27062,-2.08004 -3.30361,4.5761 -8.0049,8.18152 -14.10387,8.18152 -5.082479,0 -10.292019,-2.63473 -15.501559,-8.04285 -4.193044,-4.29877 -6.988407,-12.20295 -7.750779,-21.90984 -0.762372,-9.84556 0.508248,-20.52314 3.811858,-30.09136 3.557735,-10.40023 9.529647,-19.2751 17.15336,-25.65392 9.0214,-7.48817 20.20285,-11.50959 33.4173,-11.9256 1.01649,0 1.90592,0 2.79536,0 13.59563,0 25.15826,3.60541 34.43379,10.67757 7.87784,5.96281 13.84975,14.42167 17.28042,24.4059 5.59073,16.36304 3.55774,34.52879 -4.82835,42.43297 -4.44717,4.16009 -8.89434,6.24014 -13.46857,6.24014 -3.17655,0 -5.84485,-1.10936 -8.13196,-2.49606 -0.38119,1.24803 -0.76238,2.49606 -1.52475,3.74409 -3.43067,6.51748 -10.16495,10.53891 -20.32991,12.34162 -2.28711,0.69335 -4.44717,0.97069 -6.48016,0.97069 m -14.99331,-27.31796 c 0.25413,0 0.50825,0 0.76237,0.13867 2.28712,0.55468 3.6848,2.91206 3.17655,5.26945 0,0 -0.88943,5.82413 1.77887,9.42955 1.77887,2.21872 4.82835,3.46675 9.0214,3.46675 1.6518,0 3.43067,-0.13867 5.3366,-0.55468 7.36959,-1.24803 12.32501,-4.02143 14.358,-7.76552 2.03299,-3.88275 0.76237,-8.04285 0.63531,-8.45886 -0.88943,-2.21871 0,-4.71477 2.03299,-5.68546 1.90593,-1.10936 4.32011,-0.27734 5.46366,1.80271 0,0 3.55774,6.37881 8.76728,6.37881 2.41418,0 5.08248,-1.3867 8.0049,-4.02142 4.95542,-4.71478 7.24253,-18.44309 2.41418,-32.58742 -3.04949,-8.7362 -13.34151,-29.25933 -43.96344,-29.25933 -0.88943,0 -1.77886,0 -2.54123,0 -28.33482,0.97069 -39.135084,20.38446 -43.074005,31.75539 -2.795362,8.18152 -3.93892,17.4724 -3.30361,26.06993 0.63531,7.3495 2.541239,13.45098 5.20954,16.0857 3.557734,3.74409 6.861345,5.5468 9.783765,5.5468 6.60723,0 11.18146,-9.98423 11.94383,-14.00566 0.63531,-2.08005 2.28711,-3.60541 4.19304,-3.60541"
   id="path28"
   style="stroke-width:1.32739" />
<path
   class="st3"
   d="m 335.54964,299.25302 c -8.51315,-13.03496 -35.45028,-3.32807 -35.45028,-3.32807 0,0 -26.93713,-9.70689 -35.45028,3.32807 -8.51315,13.03497 -24.01471,80.56718 35.45028,80.56718 59.46499,0 43.96343,-67.53221 35.45028,-80.56718"
   id="path29"
   style="stroke-width:1.32739" />
<path
   class="st1"
   d="m 300.09936,384.25764 c -10.92733,0 -20.20285,-2.21872 -27.57244,-6.51749 -6.73429,-4.02142 -11.81676,-9.70689 -15.24744,-16.91772 -5.97191,-12.61895 -5.59072,-27.17929 -4.3201,-37.16352 1.6518,-12.34161 5.3366,-22.32584 8.25902,-26.90195 3.81186,-5.68546 10.29202,-8.59753 19.56754,-8.59753 8.13197,0 16.26393,2.35739 19.31342,3.32808 3.04949,-0.97069 11.18145,-3.32808 19.31342,-3.32808 9.27552,0 15.75568,2.91207 19.56754,8.59753 2.92242,4.57611 6.60722,14.56034 8.25902,26.90195 1.27062,9.98423 1.65181,24.54457 -4.3201,37.16352 -3.43068,7.3495 -8.64022,13.03497 -15.24744,16.91772 -7.36959,4.29877 -16.64511,6.51749 -27.57244,6.51749 M 280.78594,297.0343 c -6.35309,0 -10.6732,1.66404 -12.83325,4.85345 -2.41418,3.60541 -5.46367,12.75762 -6.86135,23.01919 -1.14356,8.7362 -1.52474,21.21649 3.43067,31.7554 5.84485,12.34161 17.78868,18.72043 35.45029,18.72043 17.66161,0 29.60543,-6.24015 35.45028,-18.72043 4.95542,-10.53891 4.57423,-23.0192 3.43067,-31.7554 -1.39768,-10.26157 -4.44716,-19.27511 -6.86134,-23.01919 -2.16005,-3.18941 -6.48016,-4.85345 -12.83326,-4.85345 -8.76727,0 -17.91573,3.18941 -18.04279,3.32808 -0.88944,0.27734 -1.77887,0.27734 -2.54124,0 0.12706,-0.13867 -8.89434,-3.32808 -17.78868,-3.32808"
   id="path30"
   style="stroke-width:1.32739" />
<path
   class="st1"
   d="m 304.2924,296.06362 -4.06598,71.96964 -4.06598,-71.96964 c -0.12706,-2.49606 1.65181,-4.57611 3.81186,-4.85345 2.28711,-0.13867 4.19304,1.80271 4.44717,4.1601 -0.12707,0.27734 -0.12707,0.41601 -0.12707,0.69335"
   id="path31"
   style="stroke-width:1.32739" />
<path
   class="st1"
   d="m 385.23087,170.1514 c -0.88944,0.13867 -1.65181,0.41601 -2.54124,0.55468 -0.88944,0.13867 -1.65181,0.41601 -2.41418,0.55468 -1.65181,0.41601 -3.17655,0.83202 -4.82835,1.38669 -1.52475,0.41601 -3.04949,0.97069 -4.57423,1.52537 -1.52475,0.55468 -2.92243,1.24803 -4.44717,1.94138 -0.76237,0.27734 -1.39768,0.69335 -2.03299,1.10936 -0.63531,0.41601 -1.39769,0.83202 -2.033,1.10936 -1.27061,0.83202 -2.54123,1.66404 -3.68479,2.63473 -0.50825,0.416 -1.14356,0.97068 -1.65181,1.52536 -0.50824,0.55468 -1.01649,1.10936 -1.52474,1.66404 -0.50825,0.55468 -0.88943,1.10936 -1.39768,1.66404 -0.38119,0.55468 -0.76237,1.24803 -1.14356,1.80271 l -4.06598,-6.93349 0.76237,-0.13867 0.63531,-0.13867 c 0.50825,0 0.88943,-0.13867 1.27062,-0.13867 0.88943,0 1.77887,-0.13867 2.6683,-0.13867 1.77887,0 3.55773,0 5.3366,0.13867 0.88944,0 1.77887,0.13867 2.6683,0.27734 0.88944,0.13867 1.77887,0.27734 2.6683,0.41601 1.77887,0.27734 3.43068,0.83201 5.20954,1.38669 0.88944,0.27734 1.65181,0.55468 2.54124,0.97069 0.88944,0.27734 1.65181,0.69335 2.41418,1.10936 0.76237,0.41601 1.6518,0.83202 2.41418,1.3867 0.76237,0.55468 1.52474,0.97069 2.28711,1.52537 0.76237,0.55468 1.39768,1.10936 2.16005,1.80271 0.63531,0.69335 1.27062,1.38669 1.90593,2.08004 0.63531,0.69335 1.14356,1.52537 1.65181,2.21872 0.50825,0.83202 0.88943,1.66404 1.27062,2.49606 -0.76237,-0.55468 -1.39768,-1.10936 -2.16005,-1.52537 -0.76238,-0.41601 -1.39769,-0.83202 -2.16006,-1.24803 -1.39768,-0.83202 -2.92242,-1.3867 -4.44717,-1.94138 -1.52474,-0.55468 -3.04948,-0.97069 -4.57423,-1.24802 -1.52474,-0.27734 -3.04948,-0.55468 -4.57423,-0.69335 -3.04948,-0.41601 -6.22603,-0.41601 -9.40258,-0.41601 -1.52474,0 -3.17655,0.13867 -4.70129,0.27734 -0.76237,0 -1.52475,0.13867 -2.28712,0.13867 l -1.14355,0.13867 -0.50825,0.13867 -0.50825,0.13867 h -0.12706 c -2.28712,0.27734 -4.32011,-1.3867 -4.57423,-3.88276 -0.12706,-1.10936 0.12706,-2.21872 0.63531,-3.05074 0.50825,-0.83202 1.14355,-1.8027 1.6518,-2.63472 0.63531,-0.83202 1.27062,-1.66404 1.90593,-2.35739 0.63531,-0.69335 1.39768,-1.3867 2.16006,-2.08005 0.76237,-0.69335 1.52474,-1.24803 2.28711,-1.80271 1.65181,-1.10936 3.30361,-2.08004 4.95542,-2.77339 0.88943,-0.41601 1.77886,-0.69335 2.54124,-0.97069 0.88943,-0.27734 1.77886,-0.55468 2.6683,-0.83202 1.77886,-0.41601 3.55773,-0.83202 5.3366,-0.97069 1.77886,-0.13867 3.55773,-0.27734 5.20954,-0.13867 0.88943,0 1.77886,0.13867 2.6683,0.13867 0.88943,0.13867 1.77887,0.13867 2.54124,0.41601 0.88943,0.13867 1.6518,0.27734 2.54124,0.55468 0.88943,0.27734 1.77886,0.55468 2.54124,0.83202"
   id="path32"
   style="stroke-width:1.32739" />
<path
   class="st1"
   d="m 214.96786,170.1514 c 0.76237,-0.27734 1.6518,-0.55468 2.54123,-0.83202 0.88944,-0.27734 1.65181,-0.41601 2.54124,-0.55468 0.88944,-0.13867 1.77887,-0.27734 2.54124,-0.41601 0.88944,-0.13867 1.77887,-0.13867 2.6683,-0.13867 1.77887,0 3.55774,0 5.20954,0.13867 1.77887,0.13867 3.55774,0.55468 5.3366,0.97069 0.88944,0.27734 1.77887,0.55468 2.66831,0.83202 0.88943,0.27734 1.77886,0.69335 2.54123,0.97069 1.65181,0.83202 3.43068,1.66403 4.95542,2.77339 0.76237,0.55468 1.52474,1.24803 2.28712,1.80271 0.76237,0.69335 1.52474,1.3867 2.16005,2.08005 0.63531,0.69335 1.39768,1.52537 1.90593,2.35739 0.63531,0.83202 1.14356,1.66403 1.6518,2.63472 1.27062,2.08005 0.63531,4.85345 -1.27062,6.24015 -0.88943,0.55468 -1.77886,0.83202 -2.79536,0.69335 h -0.12706 l -0.50825,-0.13867 -0.50825,-0.13867 -1.14355,-0.13867 c -0.76238,-0.13867 -1.52475,-0.13867 -2.28712,-0.13867 -1.52474,-0.13867 -3.17655,-0.13867 -4.70129,-0.27734 -3.17655,0 -6.22604,0 -9.40259,0.41601 -1.52474,0.13867 -3.04948,0.41601 -4.57423,0.69335 -1.52474,0.27733 -3.04948,0.69334 -4.57423,1.24802 -1.52474,0.55468 -2.92242,1.10936 -4.44716,1.94138 -0.76238,0.41601 -1.39769,0.83202 -2.16006,1.24803 -0.76237,0.41601 -1.39768,0.97069 -2.16005,1.52537 0.38119,-0.83202 0.76237,-1.66404 1.27062,-2.49606 0.50825,-0.83202 1.01649,-1.52537 1.6518,-2.21872 0.63531,-0.69335 1.27062,-1.38669 1.90593,-2.08004 0.63531,-0.69335 1.39769,-1.24803 2.16006,-1.80271 0.76237,-0.55468 1.52474,-1.10936 2.28711,-1.52537 0.76237,-0.55468 1.52475,-0.97069 2.41418,-1.3867 0.76237,-0.41601 1.6518,-0.83202 2.41418,-1.10936 0.88943,-0.27734 1.6518,-0.69335 2.54124,-0.97069 1.6518,-0.55468 3.43067,-0.97069 5.20953,-1.38669 0.88944,-0.13867 1.77887,-0.27734 2.66831,-0.41601 0.88943,-0.13867 1.77886,-0.27734 2.6683,-0.27734 1.77886,-0.13867 3.55773,-0.13867 5.3366,-0.13867 0.88943,0 1.77887,0 2.6683,0.13867 0.38119,0 0.88943,0.13867 1.27062,0.13867 l 0.63531,0.13867 0.76237,0.13867 -4.06598,6.93349 c -0.38119,-0.69335 -0.76237,-1.24803 -1.14356,-1.80271 -0.38119,-0.55468 -0.88943,-1.24803 -1.39768,-1.66404 -0.50825,-0.55468 -1.0165,-1.10936 -1.52474,-1.66404 -0.50825,-0.55468 -1.0165,-0.97069 -1.65181,-1.52536 -1.14356,-0.97069 -2.41418,-1.80271 -3.6848,-2.63473 -0.63531,-0.41601 -1.27062,-0.83202 -2.03299,-1.10936 -0.63531,-0.41601 -1.39768,-0.69335 -2.03299,-1.10936 -1.39768,-0.69335 -2.92242,-1.24803 -4.44717,-1.94138 -1.52474,-0.55468 -3.04948,-1.10936 -4.57423,-1.52537 -1.52474,-0.55467 -3.17655,-0.97068 -4.82835,-1.38669 -0.76237,-0.13867 -1.65181,-0.41601 -2.41418,-0.55468 -0.76237,-0.13867 -1.52474,-0.27734 -2.41417,-0.55468"
   id="path33"
   style="stroke-width:1.32739" />
</svg>
